<?xml version="1.0" standalone="no"?>
<!DOCTYPE svg PUBLIC "-//W3C//DTD SVG 20010904//EN"
 "http://www.w3.org/TR/2001/REC-SVG-20010904/DTD/svg10.dtd">
<svg version="1.0" xmlns="http://www.w3.org/2000/svg"
 width="910.000000pt" height="910.000000pt" viewBox="0 0 910.000000 910.000000"
 preserveAspectRatio="xMidYMid meet">
<metadata>
Created by potrace 1.14, written by Peter Selinger 2001-2017
</metadata>
<g transform="translate(0.000000,910.000000) scale(0.100000,-0.100000)"
fill="#000000" stroke="none">
<path d="M4390 8843 c-843 -34 -1712 -340 -2397 -844 -920 -677 -1535 -1670
-1727 -2789 -80 -463 -82 -987 -5 -1445 208 -1254 954 -2360 2035 -3017 573
-348 1166 -549 1844 -625 212 -23 684 -23 895 0 888 100 1687 436 2365 996
241 199 545 523 736 786 270 369 502 830 639 1265 82 263 153 619 181 913 22
238 15 705 -15 927 -116 856 -440 1604 -980 2259 -132 160 -420 447 -578 575
-692 561 -1485 891 -2358 981 -146 15 -484 25 -635 18z m1650 -2404 c36 -5 77
-16 92 -24 15 -7 42 -16 59 -20 89 -20 209 -95 347 -220 49 -44 100 -89 113
-100 13 -10 97 -88 185 -172 89 -84 165 -153 170 -153 4 0 27 -18 50 -41 l41
-40 6 61 c4 45 12 70 32 96 44 57 76 82 121 93 76 19 338 11 419 -13 6 -2 13
-3 16 -2 3 0 12 -4 20 -10 8 -6 27 -14 44 -18 33 -8 134 -85 135 -102 0 -6 6
-17 14 -23 8 -7 13 -22 11 -33 -3 -12 0 -27 6 -35 6 -7 8 -21 4 -30 -5 -10 -9
-27 -10 -38 -10 -101 -170 -246 -325 -296 -82 -27 -85 -22 87 -184 176 -165
263 -254 263 -271 0 -7 7 -14 15 -18 8 -3 15 -12 15 -20 0 -8 6 -19 13 -23 22
-14 148 -281 143 -304 0 -3 4 -12 10 -20 7 -8 15 -34 19 -59 4 -25 12 -51 19
-59 16 -20 16 -1232 0 -1252 -6 -8 -14 -31 -18 -52 -4 -21 -23 -64 -42 -97
-18 -32 -34 -61 -34 -65 0 -9 -75 -108 -93 -124 -15 -12 -17 -39 -17 -210 0
-144 -4 -203 -14 -222 -7 -14 -16 -37 -20 -52 -11 -45 -128 -161 -178 -177
-24 -8 -48 -18 -55 -23 -7 -5 -17 -6 -23 -2 -5 3 -10 1 -10 -4 0 -13 -632 -16
-644 -3 -4 4 -11 7 -14 8 -4 0 -14 3 -22 6 -8 4 -30 11 -48 17 -18 5 -59 34
-93 63 -80 71 -111 135 -117 245 l-5 83 -2067 0 -2067 0 -5 -86 c-3 -59 -9
-88 -18 -94 -8 -5 -12 -12 -8 -15 25 -25 -136 -189 -196 -201 -20 -3 -39 -10
-42 -15 -3 -5 -9 -7 -14 -4 -5 3 -11 1 -15 -5 -7 -12 -637 -14 -649 -2 -4 4
-11 7 -14 8 -4 0 -16 4 -27 8 -11 5 -34 13 -51 19 -46 17 -150 120 -166 165
-7 20 -17 40 -23 44 -6 4 -11 93 -13 220 l-3 213 -28 30 c-31 34 -74 93 -84
115 -4 8 -20 38 -36 67 -17 28 -33 68 -37 90 -4 21 -12 41 -18 45 -15 10 -16
1256 0 1266 6 4 16 36 23 71 7 35 17 71 22 80 10 18 32 76 28 76 -1 0 9 18 22
40 13 22 39 70 58 108 18 37 38 67 42 67 5 0 9 5 9 11 0 15 90 127 131 163 19
17 98 91 176 165 128 120 141 136 125 147 -9 7 -23 14 -30 14 -19 0 -159 70
-173 86 -6 8 -17 14 -24 14 -19 0 -112 106 -136 154 -27 53 -30 174 -5 188 9
5 16 14 16 21 0 21 104 95 151 107 24 7 49 15 54 19 20 16 157 31 272 31 123
0 192 -12 206 -36 4 -8 13 -14 18 -14 6 0 19 -10 30 -22 25 -30 52 -78 42 -78
-4 0 -2 -5 5 -12 7 -7 12 -32 12 -57 l0 -45 43 42 c23 23 47 42 51 42 5 0 91
78 192 173 211 198 408 372 444 392 105 58 243 110 329 125 73 12 2684 12
2761 -1z"/>
<path d="M3355 6083 c-32 -7 -116 -40 -162 -62 -23 -12 -46 -21 -51 -21 -5 0
-16 -8 -23 -17 -8 -9 -31 -29 -52 -44 -21 -15 -117 -103 -213 -194 -95 -92
-191 -180 -211 -196 -21 -17 -109 -96 -195 -177 l-158 -147 2363 -5 c1299 -3
2365 -4 2369 -2 10 4 -322 322 -336 322 -5 0 -88 76 -185 168 -182 173 -314
292 -325 292 -3 0 -35 14 -69 30 -35 17 -70 30 -78 30 -8 0 -21 6 -27 13 -10
9 -289 12 -1320 13 -719 1 -1316 0 -1327 -3z"/>
<path d="M1685 4638 c-22 -6 -58 -25 -80 -43 -22 -17 -48 -34 -57 -38 -10 -3
-18 -12 -18 -19 0 -7 -9 -19 -20 -26 -11 -7 -20 -18 -20 -25 0 -6 -9 -23 -20
-37 -11 -14 -20 -35 -20 -47 0 -12 -5 -23 -11 -25 -14 -5 -15 -168 -1 -194 6
-10 20 -40 31 -65 28 -61 104 -135 173 -169 31 -15 59 -25 62 -22 4 3 16 0 29
-7 16 -8 106 -11 342 -8 176 3 340 7 365 10 176 22 270 73 270 146 0 46 -26
88 -98 159 -58 58 -174 152 -187 152 -4 0 -24 13 -44 28 -20 16 -43 32 -51 35
-8 4 -37 20 -65 37 -71 42 -231 120 -249 120 -8 0 -18 5 -21 10 -4 6 -10 8
-15 5 -5 -3 -21 2 -35 11 -32 21 -199 29 -260 12z"/>
<path d="M7345 4615 c-95 -31 -268 -115 -327 -157 -16 -11 -28 -17 -28 -13 0
3 -20 -10 -44 -29 -23 -20 -46 -36 -50 -36 -6 0 -64 -38 -76 -50 -16 -16 -90
-78 -118 -99 -18 -13 -32 -30 -32 -37 0 -7 -8 -19 -17 -26 -24 -18 -53 -74
-53 -102 0 -19 34 -59 81 -94 17 -13 147 -43 196 -46 18 -1 35 -5 39 -9 12
-12 662 -9 669 3 4 6 14 10 23 8 29 -5 125 49 172 96 60 60 103 142 105 201 1
17 4 36 9 43 4 7 4 22 0 35 -4 12 -7 32 -5 44 1 11 -3 24 -8 28 -6 3 -11 17
-11 30 0 13 -5 27 -11 31 -6 3 -17 22 -25 40 -8 19 -18 34 -23 34 -5 0 -11 9
-14 20 -3 11 -13 23 -24 27 -10 3 -36 21 -58 38 -82 66 -214 73 -370 20z"/>
<path d="M3050 4149 c0 -46 24 -209 30 -209 4 0 11 -16 14 -35 4 -20 20 -58
37 -86 16 -27 29 -54 29 -58 0 -13 101 -131 112 -131 5 0 26 -13 46 -29 22
-17 60 -34 92 -41 40 -8 385 -10 1280 -8 l1225 3 45 22 c58 29 130 83 144 108
6 11 16 23 22 27 6 4 26 38 45 75 19 37 37 70 40 73 4 3 10 21 14 40 4 19 11
40 16 45 4 6 6 20 5 30 -2 11 0 25 4 30 5 6 11 45 15 88 l7 77 -1611 0 -1611
0 0 -21z"/>
<path d="M1650 3383 c-12 -27 -26 -56 -31 -65 -18 -34 -11 -134 13 -175 23
-42 117 -143 132 -143 5 0 17 -6 25 -14 9 -8 48 -26 86 -41 39 -14 83 -32 99
-38 20 -7 172 -11 475 -12 245 0 448 0 452 1 6 3 -140 163 -218 241 -29 28
-53 56 -53 62 0 5 -15 21 -32 35 -18 13 -66 63 -107 110 l-75 86 -372 0 -372
0 -22 -47z"/>
<path d="M6843 3362 c-35 -37 -63 -69 -63 -72 0 -3 -20 -23 -45 -43 -25 -21
-45 -42 -45 -46 0 -4 -24 -32 -52 -62 -102 -105 -224 -240 -218 -243 3 -1 206
-1 451 -1 303 1 455 5 475 12 16 6 61 24 99 38 39 15 77 33 86 41 8 8 20 14
25 14 12 0 101 93 132 137 18 26 22 46 22 103 0 40 -4 70 -10 70 -5 0 -10 7
-10 15 0 8 -10 35 -22 60 l-23 44 -370 0 -370 0 -62 -67z"/>
<path d="M3180 3236 c0 -19 5 -38 10 -41 6 -3 10 -15 10 -26 0 -54 107 -178
193 -223 26 -14 73 -31 105 -36 75 -14 2245 -15 2319 -1 107 20 217 98 278
196 19 31 47 150 37 160 -3 3 -668 5 -1479 5 l-1473 0 0 -34z"/>
</g>
</svg>
